<svg xmlns="http://www.w3.org/2000/svg" width="1920" height="1080" viewBox="0 0 1920 1080" role="img" aria-labelledby="title desc">
  <title id="title">Meta 葡语活跃广告本周投放漏斗</title>
  <desc id="desc">2026年8月10日至8月16日，3条葡语活跃广告。展示24630，链接点击1386，发起消息对话180，花费199.37美元。</desc>
  <defs>
    <linearGradient id="bg" x1="0" y1="0" x2="1" y2="1"><stop stop-color="#081a3a"/><stop offset="1" stop-color="#101b43"/></linearGradient>
    <linearGradient id="f1" x1="0" y1="0" x2="1" y2="1"><stop stop-color="#2679ff"/><stop offset="1" stop-color="#45c7ef"/></linearGradient>
    <linearGradient id="f2" x1="0" y1="0" x2="1" y2="1"><stop stop-color="#2567db"/><stop offset="1" stop-color="#19b6c9"/></linearGradient>
    <linearGradient id="f3" x1="0" y1="0" x2="1" y2="1"><stop stop-color="#14648d"/><stop offset="1" stop-color="#2dd1a4"/></linearGradient>
    <filter id="shadow" x="-20%" y="-20%" width="140%" height="150%"><feDropShadow dx="0" dy="16" stdDeviation="18" flood-color="#020816" flood-opacity=".5"/></filter>
    <style>
      .zh { font-family: 'Microsoft YaHei', 'Noto Sans CJK SC', Arial, sans-serif; fill: #f8fbff; }
      .muted { fill: #aac3ed; }
      .card { fill: rgba(255,255,255,.06); stroke: rgba(137,192,255,.25); stroke-width: 2; }
    </style>
  </defs>
  <rect width="1920" height="1080" fill="url(#bg)"/>
  <g opacity=".16" stroke="#63b4ff" stroke-width="1"><path d="M0 150H1920M0 300H1920M0 450H1920M0 600H1920M0 750H1920M0 900H1920"/><path d="M160 0V1080M480 0V1080M800 0V1080M1120 0V1080M1440 0V1080M1760 0V1080"/></g>
  <text x="100" y="105" class="zh" font-size="48" font-weight="700">Meta 葡语活跃广告｜本周投放漏斗</text>
  <text x="100" y="151" class="zh muted" font-size="26">2026.08.10 – 2026.08.16（含 8/16 当天实时累计） · 3 条正在投放广告</text>

  <g filter="url(#shadow)">
    <rect x="100" y="205" width="510" height="135" rx="22" class="card"/>
    <rect x="705" y="205" width="510" height="135" rx="22" class="card"/>
    <rect x="1310" y="205" width="510" height="135" rx="22" class="card"/>
  </g>
  <text x="140" y="256" class="zh muted" font-size="24">广告花费</text><text x="140" y="312" class="zh" font-size="48" font-weight="700">$199.37</text>
  <text x="745" y="256" class="zh muted" font-size="24">单次消息对话成本</text><text x="745" y="312" class="zh" font-size="48" font-weight="700">$1.11</text>
  <text x="1350" y="256" class="zh muted" font-size="24">链接点击 → 消息对话</text><text x="1350" y="312" class="zh" font-size="48" font-weight="700">12.99%</text>

  <g filter="url(#shadow)">
    <polygon points="180,405 1740,405 1570,570 350,570" fill="url(#f1)"/>
    <polygon points="350,610 1570,610 1415,775 505,775" fill="url(#f2)"/>
    <polygon points="505,815 1415,815 1295,980 625,980" fill="url(#f3)"/>
  </g>
  <text x="960" y="470" class="zh" font-size="32" text-anchor="middle">展示次数</text>
  <text x="960" y="530" class="zh" font-size="64" font-weight="700" text-anchor="middle">24,630</text>
  <text x="960" y="670" class="zh" font-size="32" text-anchor="middle">链接点击量</text>
  <text x="960" y="735" class="zh" font-size="64" font-weight="700" text-anchor="middle">1,386</text>
  <text x="960" y="870" class="zh" font-size="32" text-anchor="middle">发起 WhatsApp 消息对话</text>
  <text x="960" y="935" class="zh" font-size="64" font-weight="700" text-anchor="middle">180</text>

  <text x="960" y="595" class="zh muted" font-size="22" text-anchor="middle">链接点击率 5.63%</text>
  <text x="960" y="800" class="zh muted" font-size="22" text-anchor="middle">展示 → 对话转化率 0.73%</text>
  <text x="100" y="1035" class="zh muted" font-size="20">广告拆分：庄园 $32.94 / 33 对话 · 婚纱 $145.06 / 124 对话 · 泥巴地 $21.37 / 23 对话</text>
  <text x="1820" y="1035" class="zh muted" font-size="18" text-anchor="end">数据来源：Meta Ads Manager</text>
</svg>
